<svg width="48" height="49" viewBox="0 0 48 49" fill="none" xmlns="http://www.w3.org/2000/svg">
<path d="M44.92 12.0137C43.38 12.7137 41.72 13.1737 40 13.3937C41.76 12.3337 43.12 10.6537 43.76 8.63367C42.1 9.63367 40.26 10.3337 38.32 10.7337C36.74 9.01367 34.52 8.01367 32 8.01367C27.3 8.01367 23.46 11.8537 23.46 16.5937C23.46 17.2737 23.54 17.9337 23.68 18.5537C16.56 18.1937 10.22 14.7737 5.99996 9.59367C5.25996 10.8537 4.83996 12.3337 4.83996 13.8937C4.83996 16.8737 6.33996 19.5137 8.65996 21.0137C7.23996 21.0137 5.91996 20.6137 4.75996 20.0137V20.0737C4.75996 24.2337 7.71996 27.7137 11.64 28.4937C10.3814 28.8381 9.06015 28.886 7.77996 28.6337C8.32317 30.3386 9.38703 31.8305 10.822 32.8995C12.2569 33.9686 13.9909 34.5611 15.78 34.5937C12.7472 36.9945 8.98795 38.2923 5.11996 38.2737C4.43996 38.2737 3.75996 38.2337 3.07996 38.1537C6.87996 40.5937 11.4 42.0137 16.24 42.0137C32 42.0137 40.66 28.9337 40.66 17.5937C40.66 17.2137 40.66 16.8537 40.64 16.4737C42.32 15.2737 43.76 13.7537 44.92 12.0137Z" fill="white"/>
</svg>
