<svg width="48" height="49" viewBox="0 0 48 49" fill="none" xmlns="http://www.w3.org/2000/svg">
<path d="M20 30.0137L30.38 24.0137L20 18.0137V30.0137ZM43.12 14.3537C43.38 15.2937 43.56 16.5537 43.68 18.1537C43.82 19.7537 43.88 21.1337 43.88 22.3337L44 24.0137C44 28.3937 43.68 31.6137 43.12 33.6737C42.62 35.4737 41.46 36.6337 39.66 37.1337C38.72 37.3937 37 37.5737 34.36 37.6937C31.76 37.8337 29.38 37.8937 27.18 37.8937L24 38.0137C15.62 38.0137 10.4 37.6937 8.34 37.1337C6.54 36.6337 5.38 35.4737 4.88 33.6737C4.62 32.7337 4.44 31.4737 4.32 29.8737C4.18 28.2737 4.12 26.8937 4.12 25.6937L4 24.0137C4 19.6337 4.32 16.4137 4.88 14.3537C5.38 12.5537 6.54 11.3937 8.34 10.8937C9.28 10.6337 11 10.4537 13.64 10.3337C16.24 10.1937 18.62 10.1337 20.82 10.1337L24 10.0137C32.38 10.0137 37.6 10.3337 39.66 10.8937C41.46 11.3937 42.62 12.5537 43.12 14.3537Z" fill="white"/>
</svg>
