<svg width="48" height="49" viewBox="0 0 48 49" fill="none" xmlns="http://www.w3.org/2000/svg">
<path d="M15.6 4.01367H32.4C38.8 4.01367 44 9.21367 44 15.6137V32.4137C44 35.4902 42.7779 38.4407 40.6024 40.6161C38.427 42.7915 35.4765 44.0137 32.4 44.0137H15.6C9.2 44.0137 4 38.8137 4 32.4137V15.6137C4 12.5372 5.22214 9.58666 7.39756 7.41123C9.57298 5.23581 12.5235 4.01367 15.6 4.01367ZM15.2 8.01367C13.2904 8.01367 11.4591 8.77224 10.1088 10.1225C8.75857 11.4728 8 13.3041 8 15.2137V32.8137C8 36.7937 11.22 40.0137 15.2 40.0137H32.8C34.7096 40.0137 36.5409 39.2551 37.8912 37.9048C39.2414 36.5546 40 34.7232 40 32.8137V15.2137C40 11.2337 36.78 8.01367 32.8 8.01367H15.2ZM34.5 11.0137C35.163 11.0137 35.7989 11.2771 36.2678 11.7459C36.7366 12.2147 37 12.8506 37 13.5137C37 14.1767 36.7366 14.8126 36.2678 15.2814C35.7989 15.7503 35.163 16.0137 34.5 16.0137C33.837 16.0137 33.2011 15.7503 32.7322 15.2814C32.2634 14.8126 32 14.1767 32 13.5137C32 12.8506 32.2634 12.2147 32.7322 11.7459C33.2011 11.2771 33.837 11.0137 34.5 11.0137ZM24 14.0137C26.6522 14.0137 29.1957 15.0672 31.0711 16.9426C32.9464 18.818 34 21.3615 34 24.0137C34 26.6658 32.9464 29.2094 31.0711 31.0847C29.1957 32.9601 26.6522 34.0137 24 34.0137C21.3478 34.0137 18.8043 32.9601 16.9289 31.0847C15.0536 29.2094 14 26.6658 14 24.0137C14 21.3615 15.0536 18.818 16.9289 16.9426C18.8043 15.0672 21.3478 14.0137 24 14.0137ZM24 18.0137C22.4087 18.0137 20.8826 18.6458 19.7574 19.771C18.6321 20.8962 18 22.4224 18 24.0137C18 25.605 18.6321 27.1311 19.7574 28.2563C20.8826 29.3815 22.4087 30.0137 24 30.0137C25.5913 30.0137 27.1174 29.3815 28.2426 28.2563C29.3679 27.1311 30 25.605 30 24.0137C30 22.4224 29.3679 20.8962 28.2426 19.771C27.1174 18.6458 25.5913 18.0137 24 18.0137Z" fill="white"/>
</svg>
