<svg width="80" height="80" viewBox="0 0 80 80" fill="none" xmlns="http://www.w3.org/2000/svg">
<path d="M3.33334 63.3333V13.3333H10V46.6667H36.6667V20H63.3333C67 20 70.1389 21.3056 72.75 23.9167C75.3611 26.5278 76.6667 29.6667 76.6667 33.3333V63.3333H70V53.3333H10V63.3333H3.33334ZM23.3333 43.3333C20.5556 43.3333 18.1944 42.3611 16.25 40.4167C14.3056 38.4722 13.3333 36.1111 13.3333 33.3333C13.3333 30.5556 14.3056 28.1944 16.25 26.25C18.1944 24.3056 20.5556 23.3333 23.3333 23.3333C26.1111 23.3333 28.4722 24.3056 30.4167 26.25C32.3611 28.1944 33.3333 30.5556 33.3333 33.3333C33.3333 36.1111 32.3611 38.4722 30.4167 40.4167C28.4722 42.3611 26.1111 43.3333 23.3333 43.3333ZM43.3333 46.6667H70V33.3333C70 31.5 69.3467 29.93 68.04 28.6233C66.7333 27.3167 65.1644 26.6644 63.3333 26.6667H43.3333V46.6667ZM23.3333 36.6667C24.2778 36.6667 25.07 36.3467 25.71 35.7067C26.35 35.0667 26.6689 34.2756 26.6667 33.3333C26.6667 32.3889 26.3467 31.5967 25.7067 30.9567C25.0667 30.3167 24.2756 29.9978 23.3333 30C22.3889 30 21.5967 30.32 20.9567 30.96C20.3167 31.6 19.9978 32.3911 20 33.3333C20 34.2778 20.32 35.07 20.96 35.71C21.6 36.35 22.3911 36.6689 23.3333 36.6667ZM23.3333 36.6667C22.3889 36.6667 21.5967 36.3467 20.9567 35.7067C20.3167 35.0667 19.9978 34.2756 20 33.3333C20 32.3889 20.32 31.5967 20.96 30.9567C21.6 30.3167 22.3911 29.9978 23.3333 30C24.2778 30 25.07 30.32 25.71 30.96C26.35 31.6 26.6689 32.3911 26.6667 33.3333C26.6667 34.2778 26.3467 35.07 25.7067 35.71C25.0667 36.35 24.2756 36.6689 23.3333 36.6667ZM43.3333 26.6667H63.3333C65.1667 26.6667 66.7367 27.32 68.0433 28.6267C69.35 29.9333 70.0022 31.5022 70 33.3333V46.6667H43.3333V26.6667Z" fill="#283513"/>
</svg>
