<svg width="80" height="80" viewBox="0 0 80 80" fill="none" xmlns="http://www.w3.org/2000/svg">
<g clip-path="url(#clip0_123_194)">
<path fill-rule="evenodd" clip-rule="evenodd" d="M35 13.3333C29.2536 13.3333 23.7426 15.6161 19.6793 19.6794C15.6161 23.7426 13.3333 29.2536 13.3333 35C13.3333 40.7464 15.6161 46.2574 19.6793 50.3207C23.7426 54.3839 29.2536 56.6667 35 56.6667C40.7463 56.6667 46.2574 54.3839 50.3206 50.3207C54.3839 46.2574 56.6667 40.7464 56.6667 35C56.6667 29.2536 54.3839 23.7426 50.3206 19.6794C46.2574 15.6161 40.7463 13.3333 35 13.3333ZM6.66666 35C6.66704 30.482 7.74787 26.0296 9.81897 22.0142C11.8901 17.9988 14.8914 14.537 18.5725 11.9175C22.2536 9.29794 26.5078 7.59671 30.9801 6.9557C35.4525 6.31469 40.0132 6.7525 44.2819 8.2326C48.5506 9.7127 52.4035 12.1922 55.5191 15.4641C58.6346 18.7361 60.9226 22.7057 62.192 27.0417C63.4614 31.3777 63.6755 35.9545 62.8164 40.3901C61.9573 44.8257 60.0499 48.9915 57.2533 52.54L69.4267 64.7133C70.0339 65.342 70.3698 66.184 70.3622 67.058C70.3546 67.932 70.0041 68.768 69.3861 69.3861C68.768 70.0041 67.932 70.3547 67.058 70.3622C66.184 70.3698 65.342 70.0339 64.7133 69.4267L52.54 57.2533C48.3621 60.5467 43.3413 62.5972 38.0524 63.1703C32.7635 63.7435 27.4201 62.816 22.6336 60.4941C17.8472 58.1722 13.8112 54.5496 10.9874 50.041C8.16368 45.5324 6.6663 40.3199 6.66666 35ZM31.6667 23.3333C31.6667 22.4493 32.0178 21.6014 32.643 20.9763C33.2681 20.3512 34.1159 20 35 20C38.9782 20 42.7935 21.5804 45.6066 24.3934C48.4196 27.2064 50 31.0218 50 35C50 35.8841 49.6488 36.7319 49.0237 37.357C48.3986 37.9821 47.5507 38.3333 46.6667 38.3333C45.7826 38.3333 44.9348 37.9821 44.3096 37.357C43.6845 36.7319 43.3333 35.8841 43.3333 35C43.3333 32.7899 42.4554 30.6703 40.8925 29.1074C39.3297 27.5446 37.2101 26.6667 35 26.6667C34.1159 26.6667 33.2681 26.3155 32.643 25.6904C32.0178 25.0652 31.6667 24.2174 31.6667 23.3333Z" fill="#283513"/>
</g>
<defs>
<clipPath id="clip0_123_194">
<rect width="80" height="80" fill="white"/>
</clipPath>
</defs>
</svg>
