<svg width="80" height="91" viewBox="0 0 80 91" fill="none" xmlns="http://www.w3.org/2000/svg">
<g clip-path="url(#clip0_123_198)">
<path d="M38.3333 11.3663C41.6101 11.3666 44.7968 12.5859 47.4066 14.8381C50.0164 17.0902 51.906 20.2514 52.7867 23.8389L52.96 24.6156L59.1933 22.8462C59.6489 22.7173 60.1234 22.6993 60.5855 22.7933C61.0477 22.8873 61.4872 23.0912 61.8752 23.3916C62.2632 23.6921 62.591 24.0823 62.8371 24.5368C63.0832 24.9913 63.2421 25.4997 63.3033 26.0288L63.3333 26.5213V33.379C65.2126 35.4269 66.7526 37.8421 67.88 40.5094L68.34 41.6764H70C70.8164 41.6765 71.6045 42.0172 72.2146 42.6338C72.8247 43.2505 73.2145 44.1002 73.31 45.0218L73.3333 45.4651V56.8314C73.3334 57.455 73.1981 58.069 72.9393 58.6189C72.6806 59.1688 72.3064 59.6375 71.85 59.9836L71.49 60.2186L67.5967 62.435C66.0028 65.9399 63.6941 68.9603 60.8633 71.2438L60 71.9031V75.7752C59.9999 76.7032 59.7001 77.5989 59.1576 78.2923C58.6151 78.9858 57.8675 79.4289 57.0567 79.5374L56.6667 79.564H46.6667C45.8502 79.5638 45.0622 79.2231 44.4521 78.6065C43.842 77.9898 43.4522 77.1401 43.3567 76.2185L43.3333 75.7752H40C39.9999 76.7032 39.7002 77.5989 39.1576 78.2923C38.6151 78.9858 37.8675 79.4289 37.0567 79.5374L36.6667 79.564H26.6667C25.8502 79.5638 25.0622 79.2231 24.4521 78.6065C23.842 77.9898 23.4522 77.1401 23.3567 76.2185L23.3333 75.7752V71.9031C20.9253 70.1532 18.8452 67.8797 17.2126 65.2133C15.58 62.5468 14.427 59.5399 13.82 56.3654C11.8544 55.7005 10.1161 54.3652 8.84018 52.5402C7.56431 50.7153 6.81255 48.4888 6.68667 46.1623L6.66667 45.4651V43.5707C6.66761 42.6051 6.99294 41.6762 7.57617 40.974C8.1594 40.2718 8.95652 39.8493 9.80465 39.7927C10.6528 39.7361 11.4879 40.0497 12.1394 40.6696C12.791 41.2894 13.2097 42.1685 13.31 43.1275L13.3333 43.5707V45.4651C13.3333 46.0259 13.44 46.5601 13.6333 47.0375C14.1421 43.6265 15.2771 40.3755 16.9644 37.4961C18.6518 34.6167 20.8536 32.1734 23.4267 30.3252C23.1902 27.9401 23.3994 25.5252 24.0406 23.2383C24.6819 20.9515 25.7407 18.8443 27.1478 17.0547C28.555 15.265 30.2787 13.8332 32.2062 12.853C34.1338 11.8727 36.2217 11.3661 38.3333 11.3663ZM56.6667 31.3709L47.4733 33.9852L47.0733 34.0723L46.6667 34.0988H35C31.6296 34.0963 28.3566 35.3841 25.7088 37.7544C23.0611 40.1248 21.1928 43.4397 20.4053 47.1646C19.6178 50.8895 19.9569 54.8073 21.368 58.2863C22.7791 61.7653 25.1799 64.6028 28.1833 66.3412C28.6673 66.6224 29.0833 67.0339 29.3953 67.5397C29.7073 68.0455 29.9057 68.6304 29.9733 69.2434L30 69.7132V71.9864H33.3333C33.3334 71.0584 33.6332 70.1628 34.1757 69.4693C34.7183 68.7758 35.4658 68.3328 36.2767 68.2242L36.6667 68.1977H46.6667C47.4831 68.1978 48.2711 68.5385 48.8812 69.1552C49.4914 69.7718 49.8811 70.6215 49.9767 71.5432L50 71.9864H53.3333V69.7132C53.3336 69.0155 53.5034 68.3315 53.824 67.7365C54.1445 67.1415 54.6034 66.6586 55.15 66.3412C58.2087 64.5614 60.6408 61.6473 62.0433 58.0817C62.2933 57.4439 62.6936 56.8971 63.2 56.5018L63.5967 56.2366L66.6667 54.4899V49.2539H65.9767C65.2509 49.2536 64.5449 48.9841 63.9662 48.4863C63.3874 47.9885 62.9674 47.2895 62.77 46.4957C61.9362 43.1627 60.2294 40.1973 57.8767 37.9937C57.2239 37.3807 56.8008 36.5084 56.6933 35.5537L56.6667 35.0726V31.3747V31.3709ZM53.3333 41.6764C54.2174 41.6764 55.0652 42.0755 55.6904 42.7861C56.3155 43.4966 56.6667 44.4603 56.6667 45.4651C56.6667 46.47 56.3155 47.4336 55.6904 48.1442C55.0652 48.8547 54.2174 49.2539 53.3333 49.2539C52.4493 49.2539 51.6014 48.8547 50.9763 48.1442C50.3512 47.4336 50 46.47 50 45.4651C50 44.4603 50.3512 43.4966 50.9763 42.7861C51.6014 42.0755 52.4493 41.6764 53.3333 41.6764ZM38.3333 18.9438C36.3143 18.9438 34.3639 19.7769 32.8447 21.2884C31.3254 22.7999 30.3407 24.8869 30.0733 27.1616C31.6887 26.7352 33.3417 26.5204 35 26.5213H46.2567L46.49 26.4569C46.0947 24.3313 45.0685 22.4247 43.5835 21.0568C42.0984 19.6889 40.2448 18.9429 38.3333 18.9438Z" fill="#283513"/>
</g>
<defs>
<clipPath id="clip0_123_198">
<rect width="80" height="90.9302" fill="white"/>
</clipPath>
</defs>
</svg>
