<svg width="80" height="80" viewBox="0 0 80 80" fill="none" xmlns="http://www.w3.org/2000/svg">
<path d="M71.1274 49.3872L72.6826 53.1641L68.7471 54.7827C68.874 55.4175 68.9375 56.0628 68.9375 56.7188C68.9375 57.3747 68.874 58.02 68.7471 58.6548L72.6826 60.2734L71.1274 64.0503L67.1919 62.3999C66.4513 63.479 65.5415 64.3888 64.4624 65.1294L66.1128 69.0649L62.3359 70.6201L60.7173 66.6846C60.0825 66.8115 59.4372 66.875 58.7812 66.875C58.1253 66.875 57.48 66.8115 56.8452 66.6846L55.2266 70.6201L51.4497 69.0649L53.1001 65.1294C52.021 64.3888 51.1112 63.479 50.3706 62.3999L46.4351 64.0503L44.8799 60.2734L48.8154 58.6548C48.6885 58.02 48.625 57.3747 48.625 56.7188C48.625 56.0628 48.6885 55.4175 48.8154 54.7827L44.8799 53.1641L46.4351 49.3872L50.3706 51.0376C51.1112 49.9585 52.021 49.0487 53.1001 48.3081L51.4497 44.3726L55.2266 42.8174L56.8452 46.7529C57.48 46.626 58.1253 46.5625 58.7812 46.5625C59.4372 46.5625 60.0825 46.626 60.7173 46.7529L62.3359 42.8174L66.1128 44.3726L64.4624 48.3081C65.5415 49.0487 66.4513 49.9585 67.1919 51.0376L71.1274 49.3872ZM64.875 56.7188C64.875 55.8724 64.7163 55.0789 64.3989 54.3384C64.0815 53.5978 63.6478 52.9525 63.0977 52.4023C62.5475 51.8522 61.9022 51.4185 61.1616 51.1011C60.4211 50.7837 59.6276 50.625 58.7812 50.625C57.9349 50.625 57.1414 50.7837 56.4009 51.1011C55.6603 51.4185 55.015 51.8522 54.4648 52.4023C53.9147 52.9525 53.481 53.5978 53.1636 54.3384C52.8462 55.0789 52.6875 55.8724 52.6875 56.7188C52.6875 57.5651 52.8462 58.3586 53.1636 59.0991C53.481 59.8397 53.9147 60.485 54.4648 61.0352C55.015 61.5853 55.6603 62.019 56.4009 62.3364C57.1414 62.6538 57.9349 62.8125 58.7812 62.8125C59.6276 62.8125 60.4211 62.6538 61.1616 62.3364C61.9022 62.019 62.5475 61.5853 63.0977 61.0352C63.6478 60.485 64.0815 59.8397 64.3989 59.0991C64.7163 58.3586 64.875 57.5651 64.875 56.7188ZM8 10H73V16.9507L48.625 41.3257C48.4134 41.5373 48.1383 41.7806 47.7998 42.0557C47.4613 42.3307 47.091 42.627 46.689 42.9443C46.2869 43.2617 45.8955 43.5474 45.5146 43.8013C45.1338 44.0552 44.8164 44.2985 44.5625 44.5312V39.6118L68.9375 15.2368V14.0625H12.0625V15.2368L36.4375 39.6118V62.8125H41.6108C41.8647 63.5319 42.1504 64.2301 42.4678 64.9072C42.7852 65.5843 43.1554 66.2402 43.5786 66.875H32.375V41.3257L8 16.9507V10Z" fill="#283513"/>
</svg>
