<svg width="65" height="65" viewBox="0 0 65 65" fill="none" xmlns="http://www.w3.org/2000/svg">
<path d="M32.5065 5.33649C32.8897 4.78709 33.382 4.32255 33.9527 3.97187C34.5235 3.62119 35.1603 3.39188 35.8236 3.29826C36.4869 3.20464 37.1623 3.24871 37.8078 3.42773C38.4533 3.60675 39.0549 3.91687 39.5753 4.33874L50.2027 12.9675C51.1523 13.7381 51.7776 14.8374 51.9546 16.0474C52.1316 17.2574 51.8473 18.4897 51.1583 19.5H47.1932L48.4608 17.6832C48.6967 17.3467 48.7963 16.9333 48.7397 16.5263C48.683 16.1192 48.4741 15.7487 48.1553 15.4895L42.6823 11.05L36.8452 19.5H32.89L40.1505 8.99599L37.5245 6.86399C37.3511 6.72332 37.1506 6.61987 36.9355 6.56011C36.7204 6.50036 36.4953 6.48557 36.2742 6.51667C36.0531 6.54778 35.8408 6.62411 35.6505 6.7409C35.4602 6.85769 35.2961 7.01244 35.1683 7.19549L26.585 19.4967H22.62L32.5065 5.33649ZM43.875 39C43.444 39 43.0307 39.1712 42.726 39.4759C42.4212 39.7807 42.25 40.194 42.25 40.625C42.25 41.056 42.4212 41.4693 42.726 41.774C43.0307 42.0788 43.444 42.25 43.875 42.25H47.125C47.556 42.25 47.9693 42.0788 48.274 41.774C48.5788 41.4693 48.75 41.056 48.75 40.625C48.75 40.194 48.5788 39.7807 48.274 39.4759C47.9693 39.1712 47.556 39 47.125 39H43.875ZM14.625 16.25H21.6743L19.3992 19.5H14.625C14.194 19.5 13.7807 19.6712 13.476 19.9759C13.1712 20.2807 13 20.694 13 21.125C13 21.556 13.1712 21.9693 13.476 22.274C13.7807 22.5788 14.194 22.75 14.625 22.75H48.75C50.4739 22.75 52.1272 23.4348 53.3462 24.6538C54.5652 25.8728 55.25 27.5261 55.25 29.25V48.75C55.25 50.4739 54.5652 52.1272 53.3462 53.3462C52.1272 54.5652 50.4739 55.25 48.75 55.25H17.875C15.7201 55.25 13.6535 54.394 12.1298 52.8702C10.606 51.3465 9.75 49.2799 9.75 47.125V21.125C9.75 19.8321 10.2636 18.5921 11.1779 17.6778C12.0921 16.7636 13.3321 16.25 14.625 16.25ZM13 47.125C13 48.4179 13.5136 49.6579 14.4279 50.5721C15.3421 51.4864 16.5821 52 17.875 52H48.75C49.612 52 50.4386 51.6576 51.0481 51.0481C51.6576 50.4386 52 49.6119 52 48.75V29.25C52 28.388 51.6576 27.5614 51.0481 26.9519C50.4386 26.3424 49.612 26 48.75 26H14.625C14.0563 26 13.507 25.9025 13 25.7237V47.125Z" fill="#283513"/>
</svg>
