<svg width="61" height="53" viewBox="0 0 61 53" fill="none" xmlns="http://www.w3.org/2000/svg">
<path d="M60.9375 10.1562C60.9375 9.34375 60.5312 8.73438 59.9219 8.32812L45.7031 0.203125C45.2969 -1.93715e-07 45.0938 0 44.6875 0C44.2812 0 44.0781 -1.93715e-07 43.6719 0.203125L30.4688 7.71875L17.2656 0.203125C16.8594 -1.93715e-07 16.6562 0 16.25 0C15.8438 0 15.6406 -1.93715e-07 15.2344 0.203125L1.01562 8.32812C0.40625 8.73438 0 9.34375 0 10.1562V50.7812C0 52 0.8125 52.8125 2.03125 52.8125C2.4375 52.8125 2.64062 52.6094 3.04688 52.6094L16.25 45.0938L29.4531 52.6094C29.8594 52.8125 30.0625 52.8125 30.4688 52.8125C30.875 52.8125 31.0781 52.8125 31.4844 52.6094L44.6875 45.0938L57.8906 52.6094C58.0938 52.8125 58.5 52.8125 58.9062 52.8125C60.125 52.8125 60.9375 52 60.9375 50.7812V10.1562ZM4.0625 11.375L14.2188 5.48437V41.4375L4.0625 47.3281V11.375ZM28.4375 47.3281L18.2812 41.4375V5.48437L28.4375 11.375V47.3281ZM42.6562 41.4375L32.5 47.3281V11.375L42.6562 5.48437V41.4375ZM46.7188 41.4375V5.48437L56.875 11.375V47.3281L46.7188 41.4375Z" fill="#283513"/>
</svg>
