<svg width="65" height="65" viewBox="0 0 65 65" fill="none" xmlns="http://www.w3.org/2000/svg">
<path d="M16.25 59.5833H48.75C50.1866 59.5833 51.5643 59.0127 52.5802 57.9968C53.596 56.981 54.1667 55.6033 54.1667 54.1667V10.8333C54.1667 9.39675 53.596 8.019 52.5802 7.00318C51.5643 5.98735 50.1866 5.41667 48.75 5.41667H16.25C14.8134 5.41667 13.4357 5.98735 12.4198 7.00318C11.404 8.019 10.8333 9.39675 10.8333 10.8333V54.1667C10.8333 55.6033 11.404 56.981 12.4198 57.9968C13.4357 59.0127 14.8134 59.5833 16.25 59.5833ZM24.375 51.4583H18.9583V46.0417H24.375V51.4583ZM24.375 40.625H18.9583V35.2083H24.375V40.625ZM24.375 29.7917H18.9583V24.375H24.375V29.7917ZM35.2083 51.4583H29.7917V46.0417H35.2083V51.4583ZM35.2083 40.625H29.7917V35.2083H35.2083V40.625ZM35.2083 29.7917H29.7917V24.375H35.2083V29.7917ZM46.0417 51.4583H40.625V35.2083H46.0417V51.4583ZM46.0417 29.7917H40.625V24.375H46.0417V29.7917ZM16.25 10.8333H48.75V18.9583H16.25V10.8333Z" fill="#283513"/>
</svg>
