<svg width="22" height="23" viewBox="0 0 22 23" fill="none" xmlns="http://www.w3.org/2000/svg">
<path d="M20.123 8.4193C20.0653 8.24949 19.9592 8.10028 19.8177 7.99009C19.6763 7.8799 19.5056 7.81356 19.3268 7.79925L14.0977 7.38374L11.8349 2.37473C11.7628 2.2134 11.6456 2.07637 11.4974 1.98019C11.3492 1.884 11.1763 1.83277 10.9996 1.83267C10.8229 1.83258 10.6499 1.88362 10.5016 1.97964C10.3533 2.07566 10.2359 2.21256 10.1637 2.37381L7.90085 7.38374L2.6717 7.79925C2.49601 7.81317 2.32805 7.87741 2.18791 7.98428C2.04777 8.09116 1.94139 8.23615 1.8815 8.4019C1.8216 8.56765 1.81073 8.74715 1.85018 8.91892C1.88962 9.09069 1.97772 9.24746 2.10393 9.37047L5.96824 13.1376L4.60156 19.0555C4.56006 19.2347 4.57336 19.4222 4.63974 19.5936C4.70611 19.7651 4.82249 19.9127 4.97378 20.0172C5.12506 20.1217 5.30427 20.1784 5.48815 20.1798C5.67202 20.1812 5.85207 20.1273 6.00493 20.0251L10.9993 16.6955L15.9936 20.0251C16.1498 20.1288 16.3341 20.1822 16.5216 20.1781C16.7091 20.174 16.8908 20.1125 17.0424 20.0021C17.1939 19.8916 17.308 19.7373 17.3692 19.5601C17.4305 19.3828 17.436 19.1911 17.3851 19.0106L15.7074 13.1403L19.868 9.39616C20.1404 9.15034 20.2404 8.76693 20.123 8.4193Z" fill="#E77C40"/>
</svg>
